<svg width="870" height="270" viewBox="0 0 870 270" fill="none" xmlns="http://www.w3.org/2000/svg">
<path d="M335.537 139.448C335.537 134.122 336.987 129.613 339.888 125.922C342.788 122.178 346.875 119.33 352.148 117.379C357.475 115.375 363.75 114.373 370.975 114.373C376.195 114.373 380.81 114.795 384.817 115.639C388.878 116.482 391.831 117.432 393.677 118.486L393.914 139.448H392.411C390.829 132.118 388.166 126.502 384.422 122.6C380.678 118.645 376.248 116.667 371.133 116.667C366.439 116.667 362.88 117.748 360.454 119.91C358.028 122.072 356.815 124.762 356.815 127.979C356.815 131.248 357.976 133.832 360.296 135.73C362.616 137.629 365.991 139.396 370.421 141.03L376.433 143.245C383.604 145.829 389.089 149.204 392.886 153.37C396.683 157.483 398.581 162.81 398.581 169.349C398.581 174.728 396.973 179.289 393.756 183.033C390.539 186.777 386.241 189.599 380.862 191.497C375.536 193.396 369.63 194.345 363.144 194.345C359.61 194.345 356.13 194.107 352.702 193.633C349.327 193.158 346.189 192.499 343.289 191.655C340.441 190.759 338.121 189.757 336.328 188.649L335.458 165.552H336.961C338.174 171.036 340.151 175.756 342.894 179.711C345.636 183.666 348.773 186.725 352.307 188.887C355.84 190.996 359.373 192.051 362.906 192.051C367.389 192.051 370.896 190.97 373.427 188.808C376.011 186.593 377.303 183.824 377.303 180.502C377.303 177.127 376.222 174.358 374.06 172.196C371.95 169.981 368.654 168.083 364.172 166.501L358.16 164.286C351.146 161.702 345.609 158.485 341.549 154.636C337.541 150.733 335.537 145.671 335.537 139.448ZM406.618 171.089V120.78H398.391V119.356L430.744 95.8633H431.93V117.142L449.016 115.718V120.78L431.93 119.277V173.066C431.93 177.707 432.879 181.056 434.778 183.112C436.676 185.116 439.076 186.118 441.976 186.118C443.611 186.118 445.114 185.828 446.485 185.248C447.856 184.615 448.99 183.798 449.886 182.796V184.457C448.568 186.988 446.037 189.282 442.293 191.339C438.601 193.343 434.251 194.345 429.241 194.345C424.758 194.345 420.83 193.527 417.455 191.893C414.08 190.258 411.417 187.727 409.465 184.299C407.567 180.871 406.618 176.468 406.618 171.089ZM469.472 194.345C462.986 194.345 457.659 192.71 453.493 189.44C449.327 186.171 447.244 181.688 447.244 175.993C447.244 172.091 448.325 168.637 450.488 165.631C452.65 162.572 456.156 159.936 461.008 157.721C465.86 155.453 472.267 153.555 480.23 152.025L497.948 148.466V150.364L489.959 152.184C485.529 153.238 482.023 154.688 479.439 156.534C476.855 158.38 475.009 160.595 473.902 163.179C472.794 165.763 472.24 168.716 472.24 172.038C472.24 176.731 473.321 180.317 475.484 182.796C477.646 185.222 480.335 186.435 483.552 186.435C486.189 186.435 488.43 185.881 490.276 184.773C492.174 183.613 493.651 181.873 494.705 179.553V139.211C494.705 131.617 492.965 126.212 489.485 122.995C486.057 119.778 481.153 118.17 474.772 118.17C470.922 118.17 467.31 118.855 463.935 120.227C460.613 121.545 457.897 123.364 455.787 125.685C453.678 127.952 452.544 130.562 452.386 133.516H451.199C451.305 130.457 452.412 127.847 454.522 125.685C456.631 123.47 459.03 122.362 461.72 122.362C464.779 122.362 467.389 123.417 469.551 125.526C471.713 127.636 472.794 130.272 472.794 133.437C472.794 136.495 471.687 139.105 469.472 141.268C467.257 143.377 464.647 144.432 461.641 144.432C458.582 144.432 455.946 143.377 453.731 141.268C451.516 139.158 450.408 136.574 450.408 133.516C450.408 129.982 451.753 126.792 454.443 123.944C457.132 121.044 461.008 118.724 466.071 116.983C471.186 115.243 477.277 114.373 484.343 114.373C495.259 114.373 503.828 116.43 510.051 120.543C516.274 124.656 519.385 131.143 519.385 140.002V179.553C519.385 182.875 520.097 185.301 521.521 186.83C522.945 188.359 524.738 189.124 526.9 189.124C527.902 189.124 528.824 188.992 529.668 188.729V190.311C528.086 191.365 525.871 192.262 523.024 193C520.176 193.686 517.091 194.028 513.769 194.028C510.71 194.028 507.81 193.554 505.068 192.604C502.325 191.655 500.031 190.205 498.186 188.254C496.393 186.303 495.285 183.851 494.863 180.897C494.125 183.64 492.57 186.013 490.196 188.017C487.823 190.021 484.844 191.576 481.258 192.684C477.725 193.791 473.796 194.345 469.472 194.345ZM558.509 114.689V137.233C562.2 129.323 565.707 123.602 569.029 120.068C572.404 116.482 575.964 114.689 579.708 114.689C583.083 114.689 585.588 115.876 587.222 118.249C588.91 120.569 589.754 123.443 589.754 126.871C589.754 128.506 589.569 130.062 589.2 131.538C588.831 133.015 588.409 134.175 587.934 135.019C586.88 134.597 585.324 134.254 583.267 133.99C581.263 133.674 579.101 133.516 576.781 133.516C573.09 133.516 569.583 133.964 566.261 134.86C562.938 135.704 560.381 136.891 558.588 138.42L558.667 181.847C558.667 183.903 558.878 185.538 559.3 186.751C559.721 187.964 560.592 188.913 561.91 189.599C563.281 190.231 565.259 190.812 567.843 191.339V193H524.97V191.339C528.503 190.653 530.77 189.73 531.772 188.57C532.774 187.357 533.275 185.327 533.275 182.479V129.481C533.275 126.792 532.959 124.999 532.326 124.103C531.746 123.153 530.401 122.257 528.292 121.413L524.97 120.306V118.724L558.509 114.689ZM594.943 171.089V120.78H586.716V119.356L619.069 95.8633H620.255V117.142L637.341 115.718V120.78L620.255 119.277V173.066C620.255 177.707 621.204 181.056 623.103 183.112C625.001 185.116 627.401 186.118 630.301 186.118C631.936 186.118 633.439 185.828 634.81 185.248C636.181 184.615 637.315 183.798 638.211 182.796V184.457C636.893 186.988 634.362 189.282 630.618 191.339C626.926 193.343 622.576 194.345 617.566 194.345C613.083 194.345 609.155 193.527 605.78 191.893C602.405 190.258 599.742 187.727 597.79 184.299C595.892 180.871 594.943 176.468 594.943 171.089ZM633.908 154.319C633.908 146.62 635.543 139.765 638.812 133.753C642.082 127.688 646.723 122.942 652.734 119.515C658.746 116.087 665.786 114.373 673.854 114.373C680.921 114.373 686.959 115.744 691.969 118.486C697.031 121.176 700.907 124.92 703.597 129.719C706.339 134.518 707.71 140.002 707.71 146.172C707.71 147.965 707.604 149.494 707.394 150.76H655.187V148.782L686.353 148.229L685.166 149.099C685.271 148.044 685.351 146.857 685.403 145.539C685.456 144.221 685.482 142.718 685.482 141.03C685.482 136.126 685.087 131.854 684.296 128.216C683.505 124.577 682.266 121.729 680.578 119.673C678.891 117.616 676.649 116.588 673.854 116.588C669.108 116.588 665.496 119.014 663.018 123.865C660.539 128.717 659.3 135.493 659.3 144.194C659.3 152.948 660.565 160.41 663.097 166.58C665.681 172.697 669.188 177.364 673.617 180.581C678.047 183.798 683.057 185.406 688.646 185.406C692.707 185.406 696.24 184.694 699.246 183.271C702.305 181.847 704.783 180.106 706.682 178.05L706.761 179.632C704.124 184.22 699.984 187.832 694.342 190.469C688.752 193.053 682.292 194.345 674.962 194.345C667.315 194.345 660.381 192.71 654.158 189.44C647.936 186.171 643.005 181.53 639.366 175.519C635.728 169.507 633.908 162.44 633.908 154.319ZM740.664 114.689V137.233C744.355 129.323 747.862 123.602 751.184 120.068C754.559 116.482 758.119 114.689 761.863 114.689C765.238 114.689 767.743 115.876 769.378 118.249C771.065 120.569 771.909 123.443 771.909 126.871C771.909 128.506 771.724 130.062 771.355 131.538C770.986 133.015 770.564 134.175 770.089 135.019C769.035 134.597 767.479 134.254 765.422 133.99C763.419 133.674 761.256 133.516 758.936 133.516C755.245 133.516 751.738 133.964 748.416 134.86C745.093 135.704 742.536 136.891 740.743 138.42L740.822 181.847C740.822 183.903 741.033 185.538 741.455 186.751C741.877 187.964 742.747 188.913 744.065 189.599C745.436 190.231 747.414 190.812 749.998 191.339V193H707.125V191.339C710.658 190.653 712.925 189.73 713.927 188.57C714.929 187.357 715.43 185.327 715.43 182.479V129.481C715.43 126.792 715.114 124.999 714.481 124.103C713.901 123.153 712.556 122.257 710.447 121.413L707.125 120.306V118.724L740.664 114.689ZM776.781 130.193C775.516 127.029 774.356 124.604 773.301 122.916C772.246 121.229 771.112 119.989 769.9 119.198C768.687 118.407 767.131 117.801 765.233 117.379V115.718H811.27V117.379C806.945 118.012 804.467 119.33 803.834 121.334C803.201 123.338 803.808 127.161 805.654 132.804L818.468 169.823H817.677L829.938 133.199C831.203 129.35 831.889 126.37 831.994 124.261C832.153 122.099 831.625 120.543 830.412 119.594C829.252 118.592 827.275 117.854 824.48 117.379V115.718H847.973V117.379C846.074 117.801 844.44 118.513 843.069 119.515C841.697 120.464 840.353 122.02 839.034 124.182C837.769 126.344 836.292 129.481 834.605 133.595L819.813 169.902L808.264 197.113L796.873 229.387H780.341V229.229C783.136 226.803 786.115 223.771 789.279 220.132C792.444 216.493 795.449 212.67 798.297 208.662C801.197 204.654 803.57 200.937 805.416 197.509L776.781 130.193Z" fill="#F9F7F7"/>
<path fill-rule="evenodd" clip-rule="evenodd" d="M0 135C0 171.497 22.4491 202.752 54.2923 215.708C67.2484 247.551 98.5026 270 135 270C171.497 270 202.752 247.551 215.708 215.708C247.551 202.752 270 171.497 270 135C270 98.5026 247.551 67.2484 215.708 54.2923C202.752 22.4491 171.497 0 135 0C98.5026 0 67.2484 22.4491 54.2923 54.2924C22.4491 67.2484 0 98.5026 0 135ZM135 81C124.163 88.1503 115.605 98.4754 110.651 110.651C98.4754 115.605 88.1503 124.163 81 135C88.1503 145.837 98.4754 154.395 110.651 159.349C115.605 171.525 124.163 181.85 135 189C145.837 181.85 154.395 171.525 159.349 159.349C171.525 154.395 181.85 145.837 189 135C181.85 124.163 171.525 115.605 159.349 110.651C154.395 98.4754 145.837 88.1503 135 81Z" fill="url(#paint0_linear_42_18)"/>
<path fill-rule="evenodd" clip-rule="evenodd" d="M44.7878 135C33.5444 117.959 27 97.5436 27 75.6C27 61.2101 29.8143 47.4774 34.9225 34.9225C47.4774 29.8143 61.2101 27 75.6 27C97.5436 27 117.959 33.5444 135 44.7878C152.041 33.5444 172.456 27 194.4 27C208.79 27 222.523 29.8143 235.077 34.9225C240.186 47.4774 243 61.2101 243 75.6C243 97.5436 236.456 117.959 225.212 135C236.456 152.041 243 172.456 243 194.4C243 208.79 240.186 222.523 235.077 235.077C222.523 240.186 208.79 243 194.4 243C172.456 243 152.041 236.456 135 225.212C117.959 236.456 97.5436 243 75.6 243C61.2101 243 47.4774 240.186 34.9225 235.077C29.8143 222.523 27 208.79 27 194.4C27 172.456 33.5444 152.041 44.7878 135ZM135 81C124.163 88.1503 115.605 98.4754 110.651 110.651C98.4754 115.605 88.1503 124.163 81 135C88.1503 145.837 98.4754 154.395 110.651 159.349C115.605 171.525 124.163 181.85 135 189C145.837 181.85 154.395 171.525 159.349 159.349C171.525 154.395 181.85 145.837 189 135C181.85 124.163 171.525 115.605 159.349 110.651C154.395 98.4754 145.837 88.1503 135 81Z" fill="url(#paint1_linear_42_18)"/>
<defs>
<linearGradient id="paint0_linear_42_18" x1="0" y1="0" x2="270" y2="270" gradientUnits="userSpaceOnUse">
<stop stop-color="#F9F7F7"/>
<stop offset="1" stop-color="#8E7D7D"/>
</linearGradient>
<linearGradient id="paint1_linear_42_18" x1="243" y1="243" x2="27" y2="27" gradientUnits="userSpaceOnUse">
<stop stop-color="#F9F7F7"/>
<stop offset="1" stop-color="#8E7D7D"/>
</linearGradient>
</defs>
</svg>
