<svg width="859" height="270" viewBox="0 0 859 270" fill="none" xmlns="http://www.w3.org/2000/svg">
<path d="M324.537 139.448C324.537 134.122 325.987 129.613 328.888 125.922C331.788 122.178 335.875 119.33 341.148 117.379C346.475 115.375 352.75 114.373 359.975 114.373C365.195 114.373 369.81 114.795 373.817 115.639C377.878 116.482 380.831 117.432 382.677 118.486L382.914 139.448H381.411C379.829 132.118 377.166 126.502 373.422 122.6C369.678 118.645 365.248 116.667 360.133 116.667C355.439 116.667 351.88 117.748 349.454 119.91C347.028 122.072 345.815 124.762 345.815 127.979C345.815 131.248 346.976 133.832 349.296 135.73C351.616 137.629 354.991 139.396 359.421 141.03L365.433 143.245C372.604 145.829 378.089 149.204 381.886 153.37C385.683 157.483 387.581 162.81 387.581 169.349C387.581 174.728 385.973 179.289 382.756 183.033C379.539 186.777 375.241 189.599 369.862 191.497C364.536 193.396 358.63 194.345 352.144 194.345C348.61 194.345 345.13 194.107 341.702 193.633C338.327 193.158 335.189 192.499 332.289 191.655C329.441 190.759 327.121 189.757 325.328 188.649L324.458 165.552H325.961C327.174 171.036 329.151 175.756 331.894 179.711C334.636 183.666 337.773 186.725 341.307 188.887C344.84 190.996 348.373 192.051 351.906 192.051C356.389 192.051 359.896 190.97 362.427 188.808C365.011 186.593 366.303 183.824 366.303 180.502C366.303 177.127 365.222 174.358 363.06 172.196C360.95 169.981 357.654 168.083 353.172 166.501L347.16 164.286C340.146 161.702 334.609 158.485 330.549 154.636C326.541 150.733 324.537 145.671 324.537 139.448ZM395.618 171.089V120.78H387.391V119.356L419.744 95.8633H420.93V117.142L438.016 115.718V120.78L420.93 119.277V173.066C420.93 177.707 421.879 181.056 423.778 183.112C425.676 185.116 428.076 186.118 430.976 186.118C432.611 186.118 434.114 185.828 435.485 185.248C436.856 184.615 437.99 183.798 438.886 182.796V184.457C437.568 186.988 435.037 189.282 431.293 191.339C427.601 193.343 423.251 194.345 418.241 194.345C413.758 194.345 409.83 193.527 406.455 191.893C403.08 190.258 400.417 187.727 398.465 184.299C396.567 180.871 395.618 176.468 395.618 171.089ZM458.472 194.345C451.986 194.345 446.659 192.71 442.493 189.44C438.327 186.171 436.244 181.688 436.244 175.993C436.244 172.091 437.325 168.637 439.488 165.631C441.65 162.572 445.156 159.936 450.008 157.721C454.86 155.453 461.267 153.555 469.23 152.025L486.948 148.466V150.364L478.959 152.184C474.529 153.238 471.023 154.688 468.439 156.534C465.855 158.38 464.009 160.595 462.902 163.179C461.794 165.763 461.24 168.716 461.24 172.038C461.24 176.731 462.321 180.317 464.484 182.796C466.646 185.222 469.335 186.435 472.552 186.435C475.189 186.435 477.43 185.881 479.276 184.773C481.174 183.613 482.651 181.873 483.705 179.553V139.211C483.705 131.617 481.965 126.212 478.485 122.995C475.057 119.778 470.153 118.17 463.772 118.17C459.922 118.17 456.31 118.855 452.935 120.227C449.613 121.545 446.897 123.364 444.787 125.685C442.678 127.952 441.544 130.562 441.386 133.516H440.199C440.305 130.457 441.412 127.847 443.522 125.685C445.631 123.47 448.03 122.362 450.72 122.362C453.779 122.362 456.389 123.417 458.551 125.526C460.713 127.636 461.794 130.272 461.794 133.437C461.794 136.495 460.687 139.105 458.472 141.268C456.257 143.377 453.647 144.432 450.641 144.432C447.582 144.432 444.946 143.377 442.731 141.268C440.516 139.158 439.408 136.574 439.408 133.516C439.408 129.982 440.753 126.792 443.443 123.944C446.132 121.044 450.008 118.724 455.071 116.983C460.186 115.243 466.277 114.373 473.343 114.373C484.259 114.373 492.828 116.43 499.051 120.543C505.274 124.656 508.385 131.143 508.385 140.002V179.553C508.385 182.875 509.097 185.301 510.521 186.83C511.945 188.359 513.738 189.124 515.9 189.124C516.902 189.124 517.824 188.992 518.668 188.729V190.311C517.086 191.365 514.871 192.262 512.024 193C509.176 193.686 506.091 194.028 502.769 194.028C499.71 194.028 496.81 193.554 494.068 192.604C491.325 191.655 489.031 190.205 487.186 188.254C485.393 186.303 484.285 183.851 483.863 180.897C483.125 183.64 481.57 186.013 479.196 188.017C476.823 190.021 473.844 191.576 470.258 192.684C466.725 193.791 462.796 194.345 458.472 194.345ZM547.509 114.689V137.233C551.2 129.323 554.707 123.602 558.029 120.068C561.404 116.482 564.964 114.689 568.708 114.689C572.083 114.689 574.588 115.876 576.222 118.249C577.91 120.569 578.754 123.443 578.754 126.871C578.754 128.506 578.569 130.062 578.2 131.538C577.831 133.015 577.409 134.175 576.934 135.019C575.88 134.597 574.324 134.254 572.267 133.99C570.263 133.674 568.101 133.516 565.781 133.516C562.09 133.516 558.583 133.964 555.261 134.86C551.938 135.704 549.381 136.891 547.588 138.42L547.667 181.847C547.667 183.903 547.878 185.538 548.3 186.751C548.721 187.964 549.592 188.913 550.91 189.599C552.281 190.231 554.259 190.812 556.843 191.339V193H513.97V191.339C517.503 190.653 519.77 189.73 520.772 188.57C521.774 187.357 522.275 185.327 522.275 182.479V129.481C522.275 126.792 521.959 124.999 521.326 124.103C520.746 123.153 519.401 122.257 517.292 121.413L513.97 120.306V118.724L547.509 114.689ZM583.943 171.089V120.78H575.716V119.356L608.069 95.8633H609.255V117.142L626.341 115.718V120.78L609.255 119.277V173.066C609.255 177.707 610.204 181.056 612.103 183.112C614.001 185.116 616.401 186.118 619.301 186.118C620.936 186.118 622.439 185.828 623.81 185.248C625.181 184.615 626.315 183.798 627.211 182.796V184.457C625.893 186.988 623.362 189.282 619.618 191.339C615.926 193.343 611.576 194.345 606.566 194.345C602.083 194.345 598.155 193.527 594.78 191.893C591.405 190.258 588.742 187.727 586.79 184.299C584.892 180.871 583.943 176.468 583.943 171.089ZM622.908 154.319C622.908 146.62 624.543 139.765 627.812 133.753C631.082 127.688 635.723 122.942 641.734 119.515C647.746 116.087 654.786 114.373 662.854 114.373C669.921 114.373 675.959 115.744 680.969 118.486C686.031 121.176 689.907 124.92 692.597 129.719C695.339 134.518 696.71 140.002 696.71 146.172C696.71 147.965 696.604 149.494 696.394 150.76H644.187V148.782L675.353 148.229L674.166 149.099C674.271 148.044 674.351 146.857 674.403 145.539C674.456 144.221 674.482 142.718 674.482 141.03C674.482 136.126 674.087 131.854 673.296 128.216C672.505 124.577 671.266 121.729 669.578 119.673C667.891 117.616 665.649 116.588 662.854 116.588C658.108 116.588 654.496 119.014 652.018 123.865C649.539 128.717 648.3 135.493 648.3 144.194C648.3 152.948 649.565 160.41 652.097 166.58C654.681 172.697 658.188 177.364 662.617 180.581C667.047 183.798 672.057 185.406 677.646 185.406C681.707 185.406 685.24 184.694 688.246 183.271C691.305 181.847 693.783 180.106 695.682 178.05L695.761 179.632C693.124 184.22 688.984 187.832 683.342 190.469C677.752 193.053 671.292 194.345 663.962 194.345C656.315 194.345 649.381 192.71 643.158 189.44C636.936 186.171 632.005 181.53 628.366 175.519C624.728 169.507 622.908 162.44 622.908 154.319ZM729.664 114.689V137.233C733.355 129.323 736.862 123.602 740.184 120.068C743.559 116.482 747.119 114.689 750.863 114.689C754.238 114.689 756.743 115.876 758.378 118.249C760.065 120.569 760.909 123.443 760.909 126.871C760.909 128.506 760.724 130.062 760.355 131.538C759.986 133.015 759.564 134.175 759.089 135.019C758.035 134.597 756.479 134.254 754.422 133.99C752.419 133.674 750.256 133.516 747.936 133.516C744.245 133.516 740.738 133.964 737.416 134.86C734.093 135.704 731.536 136.891 729.743 138.42L729.822 181.847C729.822 183.903 730.033 185.538 730.455 186.751C730.877 187.964 731.747 188.913 733.065 189.599C734.436 190.231 736.414 190.812 738.998 191.339V193H696.125V191.339C699.658 190.653 701.925 189.73 702.927 188.57C703.929 187.357 704.43 185.327 704.43 182.479V129.481C704.43 126.792 704.114 124.999 703.481 124.103C702.901 123.153 701.556 122.257 699.447 121.413L696.125 120.306V118.724L729.664 114.689ZM765.781 130.193C764.516 127.029 763.356 124.604 762.301 122.916C761.246 121.229 760.112 119.989 758.9 119.198C757.687 118.407 756.131 117.801 754.233 117.379V115.718H800.27V117.379C795.945 118.012 793.467 119.33 792.834 121.334C792.201 123.338 792.808 127.161 794.654 132.804L807.468 169.823H806.677L818.938 133.199C820.203 129.35 820.889 126.37 820.994 124.261C821.153 122.099 820.625 120.543 819.412 119.594C818.252 118.592 816.275 117.854 813.48 117.379V115.718H836.973V117.379C835.074 117.801 833.44 118.513 832.069 119.515C830.697 120.464 829.353 122.02 828.034 124.182C826.769 126.344 825.292 129.481 823.605 133.595L808.813 169.902L797.264 197.113L785.873 229.387H769.341V229.229C772.136 226.803 775.115 223.771 778.279 220.132C781.444 216.493 784.449 212.67 787.297 208.662C790.197 204.654 792.57 200.937 794.416 197.509L765.781 130.193Z" fill="#2A2525"/>
<path fill-rule="evenodd" clip-rule="evenodd" d="M0 135C0 171.497 22.4491 202.752 54.2923 215.708C67.2484 247.551 98.5026 270 135 270C171.497 270 202.752 247.551 215.708 215.708C247.551 202.752 270 171.497 270 135C270 98.5026 247.551 67.2484 215.708 54.2923C202.752 22.4491 171.497 0 135 0C98.5026 0 67.2484 22.4491 54.2923 54.2924C22.4491 67.2484 0 98.5026 0 135ZM135 81C124.163 88.1503 115.605 98.4754 110.651 110.651C98.4754 115.605 88.1503 124.163 81 135C88.1503 145.837 98.4754 154.395 110.651 159.349C115.605 171.525 124.163 181.85 135 189C145.837 181.85 154.395 171.525 159.349 159.349C171.525 154.395 181.85 145.837 189 135C181.85 124.163 171.525 115.605 159.349 110.651C154.395 98.4754 145.837 88.1503 135 81Z" fill="url(#paint0_linear_11_3)"/>
<path fill-rule="evenodd" clip-rule="evenodd" d="M44.7878 135C33.5444 117.959 27 97.5436 27 75.6C27 61.2101 29.8143 47.4774 34.9225 34.9225C47.4774 29.8143 61.2101 27 75.6 27C97.5436 27 117.959 33.5444 135 44.7878C152.041 33.5444 172.456 27 194.4 27C208.79 27 222.523 29.8143 235.077 34.9225C240.186 47.4774 243 61.2101 243 75.6C243 97.5436 236.456 117.959 225.212 135C236.456 152.041 243 172.456 243 194.4C243 208.79 240.186 222.523 235.077 235.077C222.523 240.186 208.79 243 194.4 243C172.456 243 152.041 236.456 135 225.212C117.959 236.456 97.5436 243 75.6 243C61.2101 243 47.4774 240.186 34.9225 235.077C29.8143 222.523 27 208.79 27 194.4C27 172.456 33.5444 152.041 44.7878 135ZM135 81C124.163 88.1503 115.605 98.4754 110.651 110.651C98.4754 115.605 88.1503 124.163 81 135C88.1503 145.837 98.4754 154.395 110.651 159.349C115.605 171.525 124.163 181.85 135 189C145.837 181.85 154.395 171.525 159.349 159.349C171.525 154.395 181.85 145.837 189 135C181.85 124.163 171.525 115.605 159.349 110.651C154.395 98.4754 145.837 88.1503 135 81Z" fill="url(#paint1_linear_11_3)"/>
<defs>
<linearGradient id="paint0_linear_11_3" x1="0" y1="0" x2="270" y2="270" gradientUnits="userSpaceOnUse">
<stop stop-color="#8A2387"/>
<stop offset="0.5" stop-color="#E94057"/>
<stop offset="1" stop-color="#F27121"/>
</linearGradient>
<linearGradient id="paint1_linear_11_3" x1="243" y1="243" x2="27" y2="27" gradientUnits="userSpaceOnUse">
<stop stop-color="#8A2387"/>
<stop offset="0.5" stop-color="#E94057"/>
<stop offset="1" stop-color="#F27121"/>
</linearGradient>
</defs>
</svg>
